<mxfile host="app.diagrams.net" modified="2022-11-02T07:32:34.397Z" agent="5.0 (Windows NT 10.0; Win64; x64) AppleWebKit/537.36 (KHTML, like Gecko) Chrome/104.0.0.0 Safari/537.36" etag="jUVKhhMlfrPqavWI1Ces" version="20.5.1" type="github">
  <diagram id="IseEBXKP1ceGHYMVNvsv" name="Page-1">
    <mxGraphModel dx="705" dy="315" grid="1" gridSize="10" guides="1" tooltips="1" connect="1" arrows="1" fold="1" page="1" pageScale="1" pageWidth="850" pageHeight="1100" background="none" math="0" shadow="0">
      <root>
        <mxCell id="0" />
        <mxCell id="1" parent="0" />
        <mxCell id="EOlqrZdgCESE3-eWF668-5" value="" style="edgeStyle=orthogonalEdgeStyle;rounded=0;orthogonalLoop=1;jettySize=auto;html=1;" edge="1" parent="1" source="EOlqrZdgCESE3-eWF668-1" target="EOlqrZdgCESE3-eWF668-2">
          <mxGeometry relative="1" as="geometry" />
        </mxCell>
        <mxCell id="EOlqrZdgCESE3-eWF668-1" value="START" style="rounded=1;whiteSpace=wrap;html=1;" vertex="1" parent="1">
          <mxGeometry x="120" y="30" width="120" height="60" as="geometry" />
        </mxCell>
        <mxCell id="EOlqrZdgCESE3-eWF668-4" value="" style="edgeStyle=orthogonalEdgeStyle;rounded=0;orthogonalLoop=1;jettySize=auto;html=1;" edge="1" parent="1" source="EOlqrZdgCESE3-eWF668-2" target="EOlqrZdgCESE3-eWF668-3">
          <mxGeometry relative="1" as="geometry" />
        </mxCell>
        <mxCell id="EOlqrZdgCESE3-eWF668-2" value="" style="rounded=0;whiteSpace=wrap;html=1;" vertex="1" parent="1">
          <mxGeometry x="120" y="160" width="120" height="60" as="geometry" />
        </mxCell>
        <mxCell id="EOlqrZdgCESE3-eWF668-3" value="" style="whiteSpace=wrap;html=1;rounded=0;" vertex="1" parent="1">
          <mxGeometry x="120" y="300" width="120" height="60" as="geometry" />
        </mxCell>
      </root>
    </mxGraphModel>
  </diagram>
</mxfile>
